<svg width="76" height="91" viewBox="0 0 76 91" fill="none" xmlns="http://www.w3.org/2000/svg">
<rect x="16" y="36" width="44" height="35" rx="6" fill="white"/>
<rect x="26" y="8" width="23" height="35" rx="6" fill="white"/>
<rect x="33" y="7" width="23" height="35" rx="6" fill="white"/>
<rect x="20" y="8" width="23" height="35" rx="6" fill="white"/>
<mask id="path-5-outside-1_31_48" maskUnits="userSpaceOnUse" x="0" y="-0.253784" width="76" height="91" fill="black">
<rect fill="white" y="-0.253784" width="76" height="91"/>
<path d="M34.8642 3.4093C34.7823 3.75721 34.5777 3.8186 33.6158 3.8186C32.92 3.8186 32.4698 3.90046 32.4698 4.04371C32.4698 4.30976 31.3851 5.35348 30.9349 5.53767C30.7712 5.59906 30.6279 5.78325 30.6279 5.96743C30.6279 6.13115 30.4846 6.27441 30.3005 6.27441C30.1163 6.27441 29.9321 6.4586 29.8707 6.68371C29.8093 6.90883 29.6251 7.09302 29.4819 7.09302C29.3181 7.09302 29.0726 7.31813 28.9498 7.60464C28.6837 8.2186 28.1721 8.27999 28.0288 7.72743C27.947 7.42046 27.6809 7.31813 26.8009 7.25674C26.0233 7.19534 25.614 7.05208 25.4707 6.82697C25.3274 6.54046 24.9591 6.47906 23.6902 6.47906C22.2577 6.47906 22.0735 6.51999 21.9712 6.88836C21.8893 7.23627 21.6847 7.29767 20.7228 7.29767C19.8633 7.29767 19.5358 7.37953 19.4335 7.62511C19.3721 7.78883 19.106 8.03441 18.84 8.13674C18.574 8.2186 18.3488 8.44371 18.3488 8.6279C18.3488 8.81208 18.1647 8.93488 17.8577 8.93488C17.2233 8.93488 15.893 10.2446 15.893 10.8995C15.893 11.1656 15.7088 11.4726 15.4837 11.5953C15.1972 11.7591 15.0744 12.0251 15.0744 12.5163C15.0744 13.0893 14.9926 13.2326 14.6651 13.2326C14.2763 13.2326 14.2558 13.3758 14.2558 15.893C14.2558 18.4102 14.2763 18.5535 14.6651 18.5535C15.013 18.5535 15.0744 18.6967 15.0744 19.3516C15.0744 19.9656 15.1563 20.1702 15.4837 20.2521C15.7907 20.3339 15.893 20.5386 15.893 21.0912C15.893 21.7051 15.9953 21.8688 16.4047 22.0326C16.6912 22.1349 16.9163 22.36 16.9163 22.5442C16.9163 22.7079 17.0595 22.8512 17.2233 22.8512C17.4074 22.8512 17.6121 23.0149 17.6735 23.1991C17.8372 23.6698 18.5535 24.386 19.0242 24.5498C19.2084 24.6112 19.3721 24.8158 19.3721 25C19.3721 25.2046 19.6586 25.3479 20.1907 25.4298L21.0093 25.573L20.9684 29.7888L20.907 34.0046L20.1907 34.066C19.7814 34.107 19.3721 34.3116 19.2084 34.5367C19.0651 34.7414 18.7172 34.9256 18.4512 34.9256C18.1647 34.9256 17.8577 35.1098 17.7349 35.3349C17.6121 35.56 17.387 35.7442 17.2233 35.7442C17.0391 35.7442 16.9163 35.9284 16.9163 36.1739C16.9163 36.4195 16.7526 36.6446 16.507 36.706C16.2409 36.7674 16.0567 37.0539 15.9749 37.5246C15.893 37.9953 15.6884 38.2819 15.4633 38.3432C15.2381 38.4046 15.0744 38.6298 15.0744 38.8549C15.0744 39.08 14.9107 39.3051 14.6856 39.3665C14.4195 39.4279 14.2558 39.7144 14.174 40.2465C14.0921 40.7786 13.9284 41.0446 13.6419 41.1265C13.3144 41.2084 13.2326 41.3926 13.2326 42.0679C13.2326 42.6614 13.1507 42.907 12.9256 42.907C12.7823 42.907 12.5572 43.0298 12.4753 43.1935C12.3526 43.3981 11.6567 43.5005 9.9786 43.5619C7.85023 43.6437 7.60465 43.7051 7.3386 44.0939C7.17488 44.3395 6.9293 44.5442 6.76558 44.5442C6.62233 44.5442 6.39721 44.7284 6.27442 44.933C6.15163 45.1786 5.80372 45.3628 5.39442 45.4037C4.80093 45.4651 4.73953 45.5265 4.67814 46.2019C4.63721 46.7544 4.49395 46.9795 4.20744 47.0614C3.9414 47.1228 3.8186 47.3479 3.8186 47.6958C3.8186 47.9823 3.63442 48.4121 3.4093 48.6372C3.04093 49.0056 3 49.3126 3 52.3209C3 54.9405 3.0614 55.6363 3.28651 55.7181C3.45023 55.7795 3.63442 56.2912 3.71628 56.946C3.79814 57.6419 3.98233 58.1535 4.20744 58.2967C4.39163 58.44 4.61674 58.7265 4.6986 58.9107C4.76 59.1153 4.96465 59.2791 5.14884 59.2791C5.31256 59.2791 5.45581 59.4223 5.45581 59.586C5.45581 59.7702 5.68093 59.9953 5.96744 60.0977C6.25395 60.2 6.47907 60.4251 6.47907 60.6093C6.47907 60.773 6.62233 60.9163 6.80651 60.9163C6.9907 60.9163 7.17488 61.1005 7.23628 61.3051C7.35907 61.7963 8.07535 61.9395 10.3879 61.9395C11.9842 61.9395 12.2298 61.9805 12.414 62.3488C12.5367 62.5739 12.7619 62.7581 12.9256 62.7581C13.1302 62.7581 13.2326 62.9628 13.2326 63.3926C13.2326 63.8223 13.4167 64.2112 13.7442 64.5181C14.1535 64.8865 14.2558 65.1935 14.2558 65.9302C14.2558 66.7079 14.3377 66.9126 14.6651 66.9944C14.8902 67.0558 15.0744 67.2809 15.0744 67.506C15.0744 67.7312 15.2586 67.9563 15.4837 68.0177C15.7088 68.0791 15.893 68.2428 15.893 68.386C15.893 68.5498 16.0772 68.7135 16.2819 68.7953C16.4865 68.8567 16.7116 69.1023 16.773 69.307C16.8344 69.5321 17.0186 69.7163 17.1823 69.7163C17.3665 69.7163 17.5712 69.9005 17.6326 70.1256C17.694 70.3507 17.8781 70.5349 18.0419 70.5349C18.1851 70.5349 18.3488 70.7191 18.4102 70.9442C18.4716 71.1898 18.6967 71.3535 18.9423 71.3535C19.1879 71.3535 19.3721 71.4763 19.3721 71.6605C19.3721 71.8446 19.5972 72.0902 19.8837 72.213C20.1702 72.3358 20.3953 72.5609 20.3953 72.7246C20.3953 72.8679 20.6205 72.9907 20.907 72.9907C21.2344 72.9907 21.6847 73.2567 22.1349 73.7274C22.7693 74.3619 22.8512 74.587 22.8512 75.4874C22.8512 76.3265 22.9126 76.5312 23.2605 76.613C23.6084 76.7153 23.6698 76.8995 23.6698 77.8205C23.6698 78.68 23.7516 78.946 24.0586 79.1302C24.2837 79.2326 24.5293 79.6214 24.6112 79.9898C24.6726 80.3581 24.9181 80.7879 25.1228 80.9312C25.3479 81.0744 25.5116 81.3405 25.5116 81.5042C25.5116 81.6679 25.6549 81.7907 25.8186 81.7907C26.0028 81.7907 26.2279 82.0158 26.3302 82.3023C26.4326 82.5888 26.6577 82.8139 26.8419 82.8139C27.0056 82.8139 27.1488 82.9572 27.1488 83.1414C27.1488 83.3256 27.333 83.5098 27.5581 83.5712C27.7833 83.6326 27.9674 83.8167 27.9674 83.96C27.9674 84.1237 28.0698 84.2465 28.1721 84.2465C28.4586 84.2465 29.8093 85.5972 29.8093 85.8837C29.8093 86.0065 30.3414 86.0884 31.0577 86.0884C32.1014 86.0884 32.3265 86.1498 32.4084 86.4772C32.4902 86.7842 32.7767 86.866 34.066 86.9888C35.1098 87.0707 35.7237 87.2139 35.867 87.4186C36.2149 87.8688 38.9777 87.8484 39.3256 87.3981C39.5098 87.1321 40.0419 87.0298 41.5153 86.9479C43.214 86.866 43.5005 86.8046 43.5823 86.4772C43.6642 86.1702 43.8688 86.0884 44.5033 86.0884C45.1377 86.0884 45.3423 86.0065 45.4242 85.6791C45.4856 85.413 45.7107 85.2698 46.0381 85.2698C46.3656 85.2698 46.8567 84.9833 47.3479 84.4921C47.7777 84.0623 48.2893 83.6326 48.494 83.5712C48.6781 83.4893 48.8419 83.2437 48.8419 83.0186C48.8419 82.7526 48.9851 82.6093 49.2512 82.6093C49.5172 82.6093 49.6605 82.466 49.6605 82.2C49.6605 81.9339 49.8037 81.7907 50.0493 81.7907C50.3358 81.7907 50.4586 81.586 50.5609 80.9721C50.6428 80.4605 50.8474 80.0921 51.093 79.9488C51.3795 79.8056 51.5023 79.5191 51.5023 79.0688C51.5023 78.6391 51.6456 78.3321 51.9116 78.1479C52.2391 77.9433 52.3209 77.6772 52.3209 76.8586C52.3209 75.9991 52.3823 75.7944 52.7302 75.7126C53.0781 75.6102 53.1395 75.426 53.1395 74.4028V73.1953L53.9786 73.0726C54.5721 72.9702 54.8586 72.8065 54.92 72.5609C55.0019 72.2744 55.227 72.1721 55.7386 72.1721C56.2707 72.1721 56.4753 72.0698 56.5572 71.7628C56.6186 71.5377 56.8437 71.3535 57.0484 71.3535C57.2735 71.3535 57.4372 71.2102 57.4372 71.0465C57.4372 70.8623 57.6623 70.6372 57.9488 70.5349C58.2353 70.4326 58.4605 70.2074 58.4605 70.0437C58.4605 69.88 58.6446 69.6753 58.8698 69.6139C59.0949 69.5526 59.2791 69.3684 59.2791 69.2046C59.2791 69.0409 59.4633 68.8567 59.6884 68.7953C59.9135 68.7339 60.0977 68.4884 60.0977 68.2837C60.0977 68.0995 60.2819 67.8744 60.507 67.813C60.7935 67.7516 60.9163 67.5265 60.9163 67.1786C60.9163 66.8921 61.1005 66.4623 61.3051 66.2577C61.5302 66.0326 61.7758 65.5209 61.8577 65.1321C61.9191 64.7228 62.1033 64.3953 62.267 64.3953C62.4512 64.3953 62.574 63.986 62.6763 63.1879L62.7991 62.0009L65.5823 61.8986C68.1405 61.8167 68.386 61.7758 68.6521 61.3665C68.8158 61.1209 69.1023 60.9163 69.307 60.9163C69.5116 60.9163 69.7163 60.7321 69.7777 60.507C69.8391 60.2819 70.0233 60.0977 70.2074 60.0977C70.3916 60.0977 70.5349 59.9339 70.5349 59.7088C70.5349 59.5042 70.7191 59.2791 70.9442 59.2177C71.2512 59.1358 71.3535 58.9312 71.3535 58.4809C71.3535 58.0921 71.5172 57.7032 71.7628 57.4986C72.1516 57.1712 72.1721 56.8846 72.1721 52.587C72.1721 48.8214 72.1312 48.0232 71.8856 48.0232C71.5581 48.0232 71.3535 47.5935 71.3535 46.8567C71.3535 46.5293 71.2102 46.3042 70.9646 46.2428C70.7395 46.1814 70.5349 45.9767 70.4735 45.7516C70.4121 45.5265 70.187 45.3628 69.9619 45.3628C69.7367 45.3628 69.5116 45.1786 69.4502 44.9535C69.3888 44.7079 69.1637 44.5442 68.9386 44.5442C68.3042 44.5442 67.8744 44.3191 67.8744 44.0121C67.8744 43.8074 67.3014 43.7256 65.2753 43.6846C62.7377 43.6232 62.6558 43.6028 62.5944 43.1526C62.5535 42.907 62.4102 42.7023 62.2465 42.7023C62.0623 42.7023 61.9395 42.293 61.8372 41.4744C61.7349 40.6763 61.5916 40.2465 61.4279 40.2465C61.1414 40.2465 60.9163 39.7963 60.9163 39.2232C60.9163 38.9981 60.7321 38.7321 60.507 38.6093C60.2819 38.4865 60.0977 38.2 60.0977 37.9953C60.0977 37.7293 59.9544 37.586 59.6884 37.586C59.4633 37.586 59.2791 37.5042 59.2791 37.3814C59.2791 37.1153 57.1098 34.9256 56.8233 34.9256C56.7209 34.9256 56.6186 34.8028 56.6186 34.6391C56.6186 34.3116 56.1888 34.107 55.4726 34.107H54.9814V29.707C54.9814 25.4502 55.0019 25.307 55.3907 25.307C55.6158 25.307 55.8 25.1842 55.8 25.0205C55.8 24.7135 56.2298 24.4884 56.8233 24.4884C57.253 24.4884 58.1126 23.7516 58.3172 23.1991C58.3786 23.0149 58.5833 22.8512 58.7674 22.8512C58.9312 22.8512 59.1767 22.626 59.2791 22.3395C59.3814 22.053 59.6065 21.8279 59.7907 21.8279C59.9953 21.8279 60.0977 21.6232 60.0977 21.1116C60.0977 20.6819 60.2205 20.3544 60.4456 20.2316C60.6912 20.0884 60.8344 19.5972 60.9367 18.533C61.0391 17.5712 61.2233 16.9367 61.4279 16.7935C61.8372 16.4865 61.8167 15.2791 61.4074 14.9721C61.1619 14.8084 61.0391 14.2967 60.9572 13.2326C60.8753 12.0046 60.7935 11.7386 60.4865 11.6567C60.2614 11.5953 60.0977 11.3702 60.0977 11.1451C60.0977 10.92 59.9135 10.6949 59.6884 10.6335C59.4633 10.5721 59.2791 10.4084 59.2791 10.2651C59.2791 10.1014 59.0949 9.9172 58.8698 9.85581C58.6446 9.79441 58.4605 9.58976 58.4605 9.42604C58.4605 9.26232 58.2353 9.0372 57.9488 8.93488C57.6623 8.83255 57.4372 8.60743 57.4372 8.42325C57.4372 8.25953 57.2735 8.11627 57.0484 8.11627C56.8437 8.11627 56.6186 7.93208 56.5572 7.70697C56.4753 7.37953 56.2707 7.29767 55.534 7.29767C54.8995 7.29767 54.4493 7.15441 54.04 6.82697C53.5488 6.4586 53.2009 6.37674 51.8502 6.37674C50.4791 6.37674 50.1926 6.43813 49.947 6.78604C49.7014 7.11348 49.3535 7.21581 48.0233 7.25674C46.427 7.3386 46.386 7.3386 46.1814 6.8065C46.0791 6.51999 45.854 6.27441 45.6902 6.27441C45.547 6.27441 45.3628 6.09022 45.3014 5.86511C45.24 5.63999 45.0558 5.45581 44.8716 5.45581C44.6874 5.45581 44.5442 5.31255 44.5442 5.14883C44.5442 4.98511 44.2986 4.80092 43.9916 4.71906C42.866 4.47348 42.7023 4.39162 42.7023 4.10511C42.7023 3.92092 42.4772 3.8186 41.9656 3.8186C41.413 3.8186 41.2084 3.71628 41.1265 3.4093C41.0242 3.02046 40.84 3 37.9953 3C35.1507 3 34.9665 3.02046 34.8642 3.4093ZM39.4893 7.70697C39.5712 8.05488 39.7758 8.11627 40.6558 8.11627C41.5358 8.11627 41.7405 8.17767 41.8223 8.50511C41.8837 8.73022 42.0884 8.93488 42.3135 8.99627C42.5795 9.07813 42.7023 9.28278 42.7023 9.65115C42.7023 9.99906 42.907 10.4084 43.214 10.6949C43.5005 10.9609 43.7256 11.3907 43.7256 11.6977C43.7256 11.9842 43.8484 12.2707 44.0121 12.3321C44.1758 12.3935 44.3395 12.9051 44.4214 13.6623L44.5646 14.8698H45.4651C46.1405 14.8698 46.386 14.7879 46.386 14.5628C46.386 14.3991 46.5088 14.2558 46.6726 14.2558C46.8363 14.2558 47.0205 14.0307 47.0819 13.7442C47.1637 13.4577 47.3479 13.2326 47.4912 13.2326C47.6549 13.2326 47.8186 13.0484 47.88 12.8232C47.9414 12.5981 48.1665 12.4139 48.3916 12.4139C48.6167 12.4139 48.8419 12.2298 48.9033 12.0046C48.9851 11.6977 49.1898 11.5953 49.7014 11.5953C50.1516 11.5953 50.4586 11.4726 50.6428 11.186C50.786 10.9405 51.1135 10.7767 51.4205 10.7767C51.707 10.7767 52.1777 10.9609 52.4642 11.186C52.8121 11.4521 53.3033 11.5953 53.8967 11.5953C54.6335 11.5953 54.8381 11.6772 54.92 12.0046C54.9814 12.2298 55.1656 12.4139 55.3088 12.4139C55.4726 12.4139 55.6567 12.5777 55.7386 12.7619C55.8 12.9665 56.0456 13.2735 56.2707 13.4577C56.6186 13.7442 56.68 14.0512 56.68 15.7088C56.7005 17.8167 56.5367 18.5535 56.0865 18.5535C55.9023 18.5535 55.8 18.7786 55.8 19.2698C55.8 19.8632 55.6977 20.027 55.2884 20.1907C55.0019 20.293 54.7767 20.5181 54.7767 20.7023C54.7767 20.9274 54.5721 21.0093 54.04 21.0093C53.4874 21.0093 53.2828 21.1116 53.2009 21.3981C53.1191 21.7051 52.853 21.8279 51.9321 21.9302L50.7451 22.0735L50.6223 24.3451C50.5405 25.6139 50.4791 27.7219 50.4791 29.0316V31.4465H37.893H25.307V26.7395V22.0326H24.1405C22.6465 22.0326 22.0326 21.8688 22.0326 21.48C22.0326 21.3163 21.8484 21.1321 21.6437 21.0707C21.4186 21.0093 21.214 20.8046 21.1526 20.5795C21.0912 20.3544 20.866 20.1907 20.6205 20.1907C20.334 20.1907 20.1907 20.0679 20.1907 19.8019C20.1907 19.5972 20.0065 19.3721 19.7814 19.3107C19.4335 19.2288 19.3721 19.0242 19.3721 18.1646C19.3721 17.3665 19.2698 17.0391 18.9628 16.773C18.7377 16.5684 18.5535 16.2 18.5535 15.9339C18.5535 15.6679 18.7377 15.2177 18.9628 14.9312C19.1879 14.6446 19.3721 14.1739 19.3721 13.9079C19.3721 13.5805 19.5153 13.3553 19.7814 13.2939C20.0065 13.2326 20.1907 13.0074 20.1907 12.8028C20.1907 12.5572 20.334 12.4139 20.6 12.4139C20.8047 12.4139 21.0912 12.2298 21.214 12.0046C21.3367 11.7591 21.6437 11.5953 21.9302 11.5953C22.2167 11.5953 22.6056 11.4112 22.7898 11.186C22.9944 10.9609 23.3628 10.7767 23.6288 10.7767C23.8949 10.7767 24.3451 10.9609 24.6316 11.186C24.9795 11.4521 25.4707 11.5953 26.0642 11.5953C26.8009 11.5953 27.0056 11.6772 27.0874 12.0046C27.1488 12.2298 27.374 12.4139 27.5786 12.4139C27.8651 12.4139 27.9674 12.5572 27.9674 13.0074C27.9674 13.8056 28.1516 14.2558 28.4995 14.2558C28.6633 14.2558 28.786 14.3991 28.786 14.5628C28.786 14.7879 29.0316 14.8698 29.707 14.8698C30.3619 14.8698 30.6279 14.7879 30.6279 14.5832C30.6279 14.4195 30.8326 14.2558 31.0986 14.2149C31.5079 14.1535 31.5488 14.0307 31.6102 12.4549C31.6512 11.1451 31.733 10.7767 31.9581 10.7767C32.1219 10.7767 32.2651 10.6335 32.2651 10.4698C32.2651 10.306 32.4902 10.0195 32.7767 9.83534C33.0633 9.65115 33.2884 9.38511 33.2884 9.24185C33.2884 9.0986 33.4726 8.93488 33.6977 8.87348C33.9228 8.81208 34.107 8.6279 34.107 8.44371C34.107 8.19813 34.3116 8.11627 34.946 8.11627C35.6009 8.11627 35.8056 8.03441 35.8874 7.70697C35.9898 7.3386 36.174 7.29767 37.6884 7.29767C39.2028 7.29767 39.387 7.3386 39.4893 7.70697ZM52.28 37.1153C52.4846 37.4428 52.7712 37.586 53.2623 37.586C53.7535 37.586 53.9581 37.6884 53.9581 37.893C53.9581 38.0772 54.1833 38.3023 54.4698 38.4046C54.7563 38.507 54.9814 38.7321 54.9814 38.8958C54.9814 39.0595 55.1656 39.2642 55.3907 39.3256C55.6158 39.387 55.8 39.5712 55.8 39.7349C55.8 39.8781 55.9842 40.0419 56.2093 40.1032C56.4753 40.1646 56.6186 40.3898 56.6186 40.7172C56.6186 41.4539 56.8233 41.8837 57.1507 41.8837C57.3349 41.8837 57.4372 42.1088 57.4372 42.4772C57.4372 43.2753 57.6214 43.7256 57.9488 43.7256C58.3581 43.7256 58.4605 44.9739 58.4605 50.7246C58.4605 55.2884 58.5014 56.2298 58.7674 56.4958C58.9926 56.7005 59.0744 57.253 59.0744 58.4195C59.0744 59.6884 59.013 60.0772 58.7674 60.1795C58.5628 60.2614 58.4605 60.5888 58.4605 61.2028C58.4605 61.8986 58.3377 62.267 57.9488 62.6763C57.6623 62.9832 57.4372 63.4744 57.4372 63.7609C57.4372 64.0679 57.2735 64.3953 57.0279 64.5591C56.8028 64.7023 56.6186 65.0298 56.6186 65.3163C56.6186 65.6028 56.4753 65.8893 56.2912 65.9712C56.1274 66.0326 55.8819 66.2986 55.7795 66.5646C55.6977 66.8307 55.4726 67.0558 55.3088 67.0558C55.1656 67.0558 54.9814 67.24 54.92 67.4651C54.8586 67.7516 54.6335 67.8744 54.2651 67.8744C53.9581 67.8744 53.5284 68.0791 53.2623 68.386C52.9963 68.6726 52.7302 68.8977 52.6484 68.8977C52.587 68.8977 52.3414 69.0819 52.1163 69.307C51.8502 69.573 51.4409 69.7163 50.8884 69.7163C50.4177 69.7163 49.8446 69.8595 49.5786 70.0437C48.2688 70.8828 26.9033 70.8828 25.614 70.0437C25.3479 69.8595 24.9386 69.7163 24.7135 69.7163C24.0995 69.7163 23.6698 69.4912 23.6698 69.1842C23.6698 69 23.4242 68.8977 22.9535 68.8977C22.4623 68.8977 22.1963 68.7749 22.0326 68.5088C21.9302 68.2837 21.6642 68.0586 21.4391 67.9767C21.2344 67.9153 21.0093 67.6698 20.9479 67.4651C20.8865 67.24 20.7023 67.0558 20.5181 67.0558C20.334 67.0558 20.1907 66.8921 20.1907 66.6465C20.1907 66.4009 20.0474 66.2372 19.8633 66.2372C19.6791 66.2372 19.4949 66.053 19.4335 65.8074C19.3721 65.5823 19.106 65.2958 18.84 65.1935C18.574 65.1116 18.3488 64.8865 18.3488 64.7023C18.3488 64.5386 18.226 64.3953 18.0623 64.3953C17.7349 64.3953 17.5302 63.9656 17.5302 63.2288C17.5302 62.9423 17.3665 62.5739 17.1823 62.4307C16.8344 62.2056 16.814 61.5098 16.814 53.1395C16.814 44.7693 16.8344 44.0735 17.1823 43.8484C17.3665 43.7051 17.5302 43.3367 17.5302 43.0502C17.5302 42.3339 17.7349 41.8837 18.0419 41.8837C18.2056 41.8837 18.3693 41.6995 18.4512 41.4949C18.5126 41.2698 18.7377 41.0242 18.9423 40.9628C19.1674 40.9014 19.3721 40.6558 19.4335 40.4512C19.4949 40.226 19.6791 40.0419 19.8428 40.0419C20.027 40.0419 20.1907 39.7553 20.2726 39.346C20.4158 38.6502 20.7023 38.4046 21.4595 38.4046C21.6847 38.4046 21.9098 38.2409 21.9712 37.9953C22.053 37.6884 22.2577 37.586 22.7898 37.586C23.1786 37.586 23.6288 37.4428 23.7926 37.2791C23.9767 37.1153 24.4474 36.9516 24.8567 36.9516C25.266 36.9312 27.0465 36.8493 28.786 36.7674C30.5256 36.6856 36.4605 36.6242 41.9656 36.6446L51.973 36.6651L52.28 37.1153ZM12.414 51.1544C12.414 53.6716 12.3526 54.3674 12.0865 54.7358C11.9228 54.9814 11.7181 55.6977 11.6567 56.3321C11.5953 56.946 11.4521 57.4986 11.3498 57.56C11.2474 57.6214 10.6949 57.6214 10.1219 57.5395C9.38512 57.4372 9.05767 57.2939 8.99628 57.0279C8.93488 56.8232 8.73023 56.6186 8.50512 56.5572C8.30046 56.4958 8.11628 56.3116 8.11628 56.1479C8.11628 55.9842 7.93209 55.8 7.70698 55.7386C7.31814 55.6363 7.29767 55.4521 7.29767 52.6484C7.29767 50.0493 7.3386 49.6605 7.62512 49.6605C7.8093 49.6605 7.99349 49.4763 8.05488 49.2512C8.11628 49.026 8.28 48.8419 8.44372 48.8419C8.58698 48.8419 8.81209 48.6577 8.93488 48.4326C9.11907 48.0846 9.36465 48.0232 10.7767 48.0232H12.414V51.1544ZM66.1758 48.4326C66.2372 48.6577 66.4009 48.8419 66.5646 48.8419C66.7079 48.8419 66.933 49.026 67.0558 49.2512C67.1786 49.4763 67.4037 49.6605 67.5674 49.6605C67.8335 49.6605 67.8744 50.1721 67.8744 52.7302C67.8744 55.4112 67.8335 55.8 67.547 55.8C67.3628 55.8 67.1786 55.9842 67.1172 56.2093C67.0558 56.4344 66.8512 56.6186 66.6465 56.6186C66.4419 56.6186 66.2372 56.8028 66.1758 57.0279C66.0939 57.3553 65.8893 57.4372 65.2753 57.4372C64.8456 57.4372 64.293 57.4986 64.0474 57.56L63.5767 57.6828V52.853V48.0232H64.8251C65.8893 48.0232 66.0939 48.0846 66.1758 48.4326ZM47.8186 75.7535C47.8186 76.4288 47.7367 76.6744 47.5116 76.6744C47.3274 76.6744 47.2046 76.8586 47.2046 77.1656C47.2046 77.8819 47 78.3116 46.6726 78.3116C46.5088 78.3116 46.386 78.4958 46.386 78.7209C46.386 78.987 46.2019 79.1712 45.8744 79.253C45.5879 79.3144 45.3628 79.4986 45.3628 79.6623C45.3628 79.826 45.2195 79.9488 45.0558 79.9488C44.8716 79.9488 44.6465 80.1739 44.5646 80.44C44.4623 80.706 44.1758 80.9721 43.9507 81.0335C43.7051 81.0949 43.5209 81.2791 43.5209 81.4633C43.5209 81.6884 43.3367 81.7907 42.8865 81.7907C42.4977 81.7907 42.1293 81.9544 41.9246 82.2205C41.5972 82.6093 41.3312 82.6298 38.3023 82.6707C34.9256 82.7116 34.107 82.5888 34.107 82.0772C34.107 81.8726 33.8614 81.7907 33.2679 81.7907C32.613 81.7907 32.4084 81.7088 32.3265 81.3814C32.2651 81.1153 32.04 80.9721 31.7535 80.9721C31.1191 80.9721 30.6279 80.4605 30.6279 79.826C30.6279 79.5395 30.4846 79.2735 30.28 79.1916C29.8707 79.0484 28.786 77.9228 28.786 77.6567C28.786 77.5749 28.6633 77.493 28.4995 77.493C28.3358 77.493 28.1516 77.3498 28.0902 77.1656C27.9265 76.7358 27.9265 75.1395 28.1107 74.9758C28.1721 74.8939 32.654 74.8326 38.0363 74.8326H47.8186V75.7535Z"/>
</mask>
<path d="M34.8642 3.4093C34.7823 3.75721 34.5777 3.8186 33.6158 3.8186C32.92 3.8186 32.4698 3.90046 32.4698 4.04371C32.4698 4.30976 31.3851 5.35348 30.9349 5.53767C30.7712 5.59906 30.6279 5.78325 30.6279 5.96743C30.6279 6.13115 30.4846 6.27441 30.3005 6.27441C30.1163 6.27441 29.9321 6.4586 29.8707 6.68371C29.8093 6.90883 29.6251 7.09302 29.4819 7.09302C29.3181 7.09302 29.0726 7.31813 28.9498 7.60464C28.6837 8.2186 28.1721 8.27999 28.0288 7.72743C27.947 7.42046 27.6809 7.31813 26.8009 7.25674C26.0233 7.19534 25.614 7.05208 25.4707 6.82697C25.3274 6.54046 24.9591 6.47906 23.6902 6.47906C22.2577 6.47906 22.0735 6.51999 21.9712 6.88836C21.8893 7.23627 21.6847 7.29767 20.7228 7.29767C19.8633 7.29767 19.5358 7.37953 19.4335 7.62511C19.3721 7.78883 19.106 8.03441 18.84 8.13674C18.574 8.2186 18.3488 8.44371 18.3488 8.6279C18.3488 8.81208 18.1647 8.93488 17.8577 8.93488C17.2233 8.93488 15.893 10.2446 15.893 10.8995C15.893 11.1656 15.7088 11.4726 15.4837 11.5953C15.1972 11.7591 15.0744 12.0251 15.0744 12.5163C15.0744 13.0893 14.9926 13.2326 14.6651 13.2326C14.2763 13.2326 14.2558 13.3758 14.2558 15.893C14.2558 18.4102 14.2763 18.5535 14.6651 18.5535C15.013 18.5535 15.0744 18.6967 15.0744 19.3516C15.0744 19.9656 15.1563 20.1702 15.4837 20.2521C15.7907 20.3339 15.893 20.5386 15.893 21.0912C15.893 21.7051 15.9953 21.8688 16.4047 22.0326C16.6912 22.1349 16.9163 22.36 16.9163 22.5442C16.9163 22.7079 17.0595 22.8512 17.2233 22.8512C17.4074 22.8512 17.6121 23.0149 17.6735 23.1991C17.8372 23.6698 18.5535 24.386 19.0242 24.5498C19.2084 24.6112 19.3721 24.8158 19.3721 25C19.3721 25.2046 19.6586 25.3479 20.1907 25.4298L21.0093 25.573L20.9684 29.7888L20.907 34.0046L20.1907 34.066C19.7814 34.107 19.3721 34.3116 19.2084 34.5367C19.0651 34.7414 18.7172 34.9256 18.4512 34.9256C18.1647 34.9256 17.8577 35.1098 17.7349 35.3349C17.6121 35.56 17.387 35.7442 17.2233 35.7442C17.0391 35.7442 16.9163 35.9284 16.9163 36.1739C16.9163 36.4195 16.7526 36.6446 16.507 36.706C16.2409 36.7674 16.0567 37.0539 15.9749 37.5246C15.893 37.9953 15.6884 38.2819 15.4633 38.3432C15.2381 38.4046 15.0744 38.6298 15.0744 38.8549C15.0744 39.08 14.9107 39.3051 14.6856 39.3665C14.4195 39.4279 14.2558 39.7144 14.174 40.2465C14.0921 40.7786 13.9284 41.0446 13.6419 41.1265C13.3144 41.2084 13.2326 41.3926 13.2326 42.0679C13.2326 42.6614 13.1507 42.907 12.9256 42.907C12.7823 42.907 12.5572 43.0298 12.4753 43.1935C12.3526 43.3981 11.6567 43.5005 9.9786 43.5619C7.85023 43.6437 7.60465 43.7051 7.3386 44.0939C7.17488 44.3395 6.9293 44.5442 6.76558 44.5442C6.62233 44.5442 6.39721 44.7284 6.27442 44.933C6.15163 45.1786 5.80372 45.3628 5.39442 45.4037C4.80093 45.4651 4.73953 45.5265 4.67814 46.2019C4.63721 46.7544 4.49395 46.9795 4.20744 47.0614C3.9414 47.1228 3.8186 47.3479 3.8186 47.6958C3.8186 47.9823 3.63442 48.4121 3.4093 48.6372C3.04093 49.0056 3 49.3126 3 52.3209C3 54.9405 3.0614 55.6363 3.28651 55.7181C3.45023 55.7795 3.63442 56.2912 3.71628 56.946C3.79814 57.6419 3.98233 58.1535 4.20744 58.2967C4.39163 58.44 4.61674 58.7265 4.6986 58.9107C4.76 59.1153 4.96465 59.2791 5.14884 59.2791C5.31256 59.2791 5.45581 59.4223 5.45581 59.586C5.45581 59.7702 5.68093 59.9953 5.96744 60.0977C6.25395 60.2 6.47907 60.4251 6.47907 60.6093C6.47907 60.773 6.62233 60.9163 6.80651 60.9163C6.9907 60.9163 7.17488 61.1005 7.23628 61.3051C7.35907 61.7963 8.07535 61.9395 10.3879 61.9395C11.9842 61.9395 12.2298 61.9805 12.414 62.3488C12.5367 62.5739 12.7619 62.7581 12.9256 62.7581C13.1302 62.7581 13.2326 62.9628 13.2326 63.3926C13.2326 63.8223 13.4167 64.2112 13.7442 64.5181C14.1535 64.8865 14.2558 65.1935 14.2558 65.9302C14.2558 66.7079 14.3377 66.9126 14.6651 66.9944C14.8902 67.0558 15.0744 67.2809 15.0744 67.506C15.0744 67.7312 15.2586 67.9563 15.4837 68.0177C15.7088 68.0791 15.893 68.2428 15.893 68.386C15.893 68.5498 16.0772 68.7135 16.2819 68.7953C16.4865 68.8567 16.7116 69.1023 16.773 69.307C16.8344 69.5321 17.0186 69.7163 17.1823 69.7163C17.3665 69.7163 17.5712 69.9005 17.6326 70.1256C17.694 70.3507 17.8781 70.5349 18.0419 70.5349C18.1851 70.5349 18.3488 70.7191 18.4102 70.9442C18.4716 71.1898 18.6967 71.3535 18.9423 71.3535C19.1879 71.3535 19.3721 71.4763 19.3721 71.6605C19.3721 71.8446 19.5972 72.0902 19.8837 72.213C20.1702 72.3358 20.3953 72.5609 20.3953 72.7246C20.3953 72.8679 20.6205 72.9907 20.907 72.9907C21.2344 72.9907 21.6847 73.2567 22.1349 73.7274C22.7693 74.3619 22.8512 74.587 22.8512 75.4874C22.8512 76.3265 22.9126 76.5312 23.2605 76.613C23.6084 76.7153 23.6698 76.8995 23.6698 77.8205C23.6698 78.68 23.7516 78.946 24.0586 79.1302C24.2837 79.2326 24.5293 79.6214 24.6112 79.9898C24.6726 80.3581 24.9181 80.7879 25.1228 80.9312C25.3479 81.0744 25.5116 81.3405 25.5116 81.5042C25.5116 81.6679 25.6549 81.7907 25.8186 81.7907C26.0028 81.7907 26.2279 82.0158 26.3302 82.3023C26.4326 82.5888 26.6577 82.8139 26.8419 82.8139C27.0056 82.8139 27.1488 82.9572 27.1488 83.1414C27.1488 83.3256 27.333 83.5098 27.5581 83.5712C27.7833 83.6326 27.9674 83.8167 27.9674 83.96C27.9674 84.1237 28.0698 84.2465 28.1721 84.2465C28.4586 84.2465 29.8093 85.5972 29.8093 85.8837C29.8093 86.0065 30.3414 86.0884 31.0577 86.0884C32.1014 86.0884 32.3265 86.1498 32.4084 86.4772C32.4902 86.7842 32.7767 86.866 34.066 86.9888C35.1098 87.0707 35.7237 87.2139 35.867 87.4186C36.2149 87.8688 38.9777 87.8484 39.3256 87.3981C39.5098 87.1321 40.0419 87.0298 41.5153 86.9479C43.214 86.866 43.5005 86.8046 43.5823 86.4772C43.6642 86.1702 43.8688 86.0884 44.5033 86.0884C45.1377 86.0884 45.3423 86.0065 45.4242 85.6791C45.4856 85.413 45.7107 85.2698 46.0381 85.2698C46.3656 85.2698 46.8567 84.9833 47.3479 84.4921C47.7777 84.0623 48.2893 83.6326 48.494 83.5712C48.6781 83.4893 48.8419 83.2437 48.8419 83.0186C48.8419 82.7526 48.9851 82.6093 49.2512 82.6093C49.5172 82.6093 49.6605 82.466 49.6605 82.2C49.6605 81.9339 49.8037 81.7907 50.0493 81.7907C50.3358 81.7907 50.4586 81.586 50.5609 80.9721C50.6428 80.4605 50.8474 80.0921 51.093 79.9488C51.3795 79.8056 51.5023 79.5191 51.5023 79.0688C51.5023 78.6391 51.6456 78.3321 51.9116 78.1479C52.2391 77.9433 52.3209 77.6772 52.3209 76.8586C52.3209 75.9991 52.3823 75.7944 52.7302 75.7126C53.0781 75.6102 53.1395 75.426 53.1395 74.4028V73.1953L53.9786 73.0726C54.5721 72.9702 54.8586 72.8065 54.92 72.5609C55.0019 72.2744 55.227 72.1721 55.7386 72.1721C56.2707 72.1721 56.4753 72.0698 56.5572 71.7628C56.6186 71.5377 56.8437 71.3535 57.0484 71.3535C57.2735 71.3535 57.4372 71.2102 57.4372 71.0465C57.4372 70.8623 57.6623 70.6372 57.9488 70.5349C58.2353 70.4326 58.4605 70.2074 58.4605 70.0437C58.4605 69.88 58.6446 69.6753 58.8698 69.6139C59.0949 69.5526 59.2791 69.3684 59.2791 69.2046C59.2791 69.0409 59.4633 68.8567 59.6884 68.7953C59.9135 68.7339 60.0977 68.4884 60.0977 68.2837C60.0977 68.0995 60.2819 67.8744 60.507 67.813C60.7935 67.7516 60.9163 67.5265 60.9163 67.1786C60.9163 66.8921 61.1005 66.4623 61.3051 66.2577C61.5302 66.0326 61.7758 65.5209 61.8577 65.1321C61.9191 64.7228 62.1033 64.3953 62.267 64.3953C62.4512 64.3953 62.574 63.986 62.6763 63.1879L62.7991 62.0009L65.5823 61.8986C68.1405 61.8167 68.386 61.7758 68.6521 61.3665C68.8158 61.1209 69.1023 60.9163 69.307 60.9163C69.5116 60.9163 69.7163 60.7321 69.7777 60.507C69.8391 60.2819 70.0233 60.0977 70.2074 60.0977C70.3916 60.0977 70.5349 59.9339 70.5349 59.7088C70.5349 59.5042 70.7191 59.2791 70.9442 59.2177C71.2512 59.1358 71.3535 58.9312 71.3535 58.4809C71.3535 58.0921 71.5172 57.7032 71.7628 57.4986C72.1516 57.1712 72.1721 56.8846 72.1721 52.587C72.1721 48.8214 72.1312 48.0232 71.8856 48.0232C71.5581 48.0232 71.3535 47.5935 71.3535 46.8567C71.3535 46.5293 71.2102 46.3042 70.9646 46.2428C70.7395 46.1814 70.5349 45.9767 70.4735 45.7516C70.4121 45.5265 70.187 45.3628 69.9619 45.3628C69.7367 45.3628 69.5116 45.1786 69.4502 44.9535C69.3888 44.7079 69.1637 44.5442 68.9386 44.5442C68.3042 44.5442 67.8744 44.3191 67.8744 44.0121C67.8744 43.8074 67.3014 43.7256 65.2753 43.6846C62.7377 43.6232 62.6558 43.6028 62.5944 43.1526C62.5535 42.907 62.4102 42.7023 62.2465 42.7023C62.0623 42.7023 61.9395 42.293 61.8372 41.4744C61.7349 40.6763 61.5916 40.2465 61.4279 40.2465C61.1414 40.2465 60.9163 39.7963 60.9163 39.2232C60.9163 38.9981 60.7321 38.7321 60.507 38.6093C60.2819 38.4865 60.0977 38.2 60.0977 37.9953C60.0977 37.7293 59.9544 37.586 59.6884 37.586C59.4633 37.586 59.2791 37.5042 59.2791 37.3814C59.2791 37.1153 57.1098 34.9256 56.8233 34.9256C56.7209 34.9256 56.6186 34.8028 56.6186 34.6391C56.6186 34.3116 56.1888 34.107 55.4726 34.107H54.9814V29.707C54.9814 25.4502 55.0019 25.307 55.3907 25.307C55.6158 25.307 55.8 25.1842 55.8 25.0205C55.8 24.7135 56.2298 24.4884 56.8233 24.4884C57.253 24.4884 58.1126 23.7516 58.3172 23.1991C58.3786 23.0149 58.5833 22.8512 58.7674 22.8512C58.9312 22.8512 59.1767 22.626 59.2791 22.3395C59.3814 22.053 59.6065 21.8279 59.7907 21.8279C59.9953 21.8279 60.0977 21.6232 60.0977 21.1116C60.0977 20.6819 60.2205 20.3544 60.4456 20.2316C60.6912 20.0884 60.8344 19.5972 60.9367 18.533C61.0391 17.5712 61.2233 16.9367 61.4279 16.7935C61.8372 16.4865 61.8167 15.2791 61.4074 14.9721C61.1619 14.8084 61.0391 14.2967 60.9572 13.2326C60.8753 12.0046 60.7935 11.7386 60.4865 11.6567C60.2614 11.5953 60.0977 11.3702 60.0977 11.1451C60.0977 10.92 59.9135 10.6949 59.6884 10.6335C59.4633 10.5721 59.2791 10.4084 59.2791 10.2651C59.2791 10.1014 59.0949 9.9172 58.8698 9.85581C58.6446 9.79441 58.4605 9.58976 58.4605 9.42604C58.4605 9.26232 58.2353 9.0372 57.9488 8.93488C57.6623 8.83255 57.4372 8.60743 57.4372 8.42325C57.4372 8.25953 57.2735 8.11627 57.0484 8.11627C56.8437 8.11627 56.6186 7.93208 56.5572 7.70697C56.4753 7.37953 56.2707 7.29767 55.534 7.29767C54.8995 7.29767 54.4493 7.15441 54.04 6.82697C53.5488 6.4586 53.2009 6.37674 51.8502 6.37674C50.4791 6.37674 50.1926 6.43813 49.947 6.78604C49.7014 7.11348 49.3535 7.21581 48.0233 7.25674C46.427 7.3386 46.386 7.3386 46.1814 6.8065C46.0791 6.51999 45.854 6.27441 45.6902 6.27441C45.547 6.27441 45.3628 6.09022 45.3014 5.86511C45.24 5.63999 45.0558 5.45581 44.8716 5.45581C44.6874 5.45581 44.5442 5.31255 44.5442 5.14883C44.5442 4.98511 44.2986 4.80092 43.9916 4.71906C42.866 4.47348 42.7023 4.39162 42.7023 4.10511C42.7023 3.92092 42.4772 3.8186 41.9656 3.8186C41.413 3.8186 41.2084 3.71628 41.1265 3.4093C41.0242 3.02046 40.84 3 37.9953 3C35.1507 3 34.9665 3.02046 34.8642 3.4093ZM39.4893 7.70697C39.5712 8.05488 39.7758 8.11627 40.6558 8.11627C41.5358 8.11627 41.7405 8.17767 41.8223 8.50511C41.8837 8.73022 42.0884 8.93488 42.3135 8.99627C42.5795 9.07813 42.7023 9.28278 42.7023 9.65115C42.7023 9.99906 42.907 10.4084 43.214 10.6949C43.5005 10.9609 43.7256 11.3907 43.7256 11.6977C43.7256 11.9842 43.8484 12.2707 44.0121 12.3321C44.1758 12.3935 44.3395 12.9051 44.4214 13.6623L44.5646 14.8698H45.4651C46.1405 14.8698 46.386 14.7879 46.386 14.5628C46.386 14.3991 46.5088 14.2558 46.6726 14.2558C46.8363 14.2558 47.0205 14.0307 47.0819 13.7442C47.1637 13.4577 47.3479 13.2326 47.4912 13.2326C47.6549 13.2326 47.8186 13.0484 47.88 12.8232C47.9414 12.5981 48.1665 12.4139 48.3916 12.4139C48.6167 12.4139 48.8419 12.2298 48.9033 12.0046C48.9851 11.6977 49.1898 11.5953 49.7014 11.5953C50.1516 11.5953 50.4586 11.4726 50.6428 11.186C50.786 10.9405 51.1135 10.7767 51.4205 10.7767C51.707 10.7767 52.1777 10.9609 52.4642 11.186C52.8121 11.4521 53.3033 11.5953 53.8967 11.5953C54.6335 11.5953 54.8381 11.6772 54.92 12.0046C54.9814 12.2298 55.1656 12.4139 55.3088 12.4139C55.4726 12.4139 55.6567 12.5777 55.7386 12.7619C55.8 12.9665 56.0456 13.2735 56.2707 13.4577C56.6186 13.7442 56.68 14.0512 56.68 15.7088C56.7005 17.8167 56.5367 18.5535 56.0865 18.5535C55.9023 18.5535 55.8 18.7786 55.8 19.2698C55.8 19.8632 55.6977 20.027 55.2884 20.1907C55.0019 20.293 54.7767 20.5181 54.7767 20.7023C54.7767 20.9274 54.5721 21.0093 54.04 21.0093C53.4874 21.0093 53.2828 21.1116 53.2009 21.3981C53.1191 21.7051 52.853 21.8279 51.9321 21.9302L50.7451 22.0735L50.6223 24.3451C50.5405 25.6139 50.4791 27.7219 50.4791 29.0316V31.4465H37.893H25.307V26.7395V22.0326H24.1405C22.6465 22.0326 22.0326 21.8688 22.0326 21.48C22.0326 21.3163 21.8484 21.1321 21.6437 21.0707C21.4186 21.0093 21.214 20.8046 21.1526 20.5795C21.0912 20.3544 20.866 20.1907 20.6205 20.1907C20.334 20.1907 20.1907 20.0679 20.1907 19.8019C20.1907 19.5972 20.0065 19.3721 19.7814 19.3107C19.4335 19.2288 19.3721 19.0242 19.3721 18.1646C19.3721 17.3665 19.2698 17.0391 18.9628 16.773C18.7377 16.5684 18.5535 16.2 18.5535 15.9339C18.5535 15.6679 18.7377 15.2177 18.9628 14.9312C19.1879 14.6446 19.3721 14.1739 19.3721 13.9079C19.3721 13.5805 19.5153 13.3553 19.7814 13.2939C20.0065 13.2326 20.1907 13.0074 20.1907 12.8028C20.1907 12.5572 20.334 12.4139 20.6 12.4139C20.8047 12.4139 21.0912 12.2298 21.214 12.0046C21.3367 11.7591 21.6437 11.5953 21.9302 11.5953C22.2167 11.5953 22.6056 11.4112 22.7898 11.186C22.9944 10.9609 23.3628 10.7767 23.6288 10.7767C23.8949 10.7767 24.3451 10.9609 24.6316 11.186C24.9795 11.4521 25.4707 11.5953 26.0642 11.5953C26.8009 11.5953 27.0056 11.6772 27.0874 12.0046C27.1488 12.2298 27.374 12.4139 27.5786 12.4139C27.8651 12.4139 27.9674 12.5572 27.9674 13.0074C27.9674 13.8056 28.1516 14.2558 28.4995 14.2558C28.6633 14.2558 28.786 14.3991 28.786 14.5628C28.786 14.7879 29.0316 14.8698 29.707 14.8698C30.3619 14.8698 30.6279 14.7879 30.6279 14.5832C30.6279 14.4195 30.8326 14.2558 31.0986 14.2149C31.5079 14.1535 31.5488 14.0307 31.6102 12.4549C31.6512 11.1451 31.733 10.7767 31.9581 10.7767C32.1219 10.7767 32.2651 10.6335 32.2651 10.4698C32.2651 10.306 32.4902 10.0195 32.7767 9.83534C33.0633 9.65115 33.2884 9.38511 33.2884 9.24185C33.2884 9.0986 33.4726 8.93488 33.6977 8.87348C33.9228 8.81208 34.107 8.6279 34.107 8.44371C34.107 8.19813 34.3116 8.11627 34.946 8.11627C35.6009 8.11627 35.8056 8.03441 35.8874 7.70697C35.9898 7.3386 36.174 7.29767 37.6884 7.29767C39.2028 7.29767 39.387 7.3386 39.4893 7.70697ZM52.28 37.1153C52.4846 37.4428 52.7712 37.586 53.2623 37.586C53.7535 37.586 53.9581 37.6884 53.9581 37.893C53.9581 38.0772 54.1833 38.3023 54.4698 38.4046C54.7563 38.507 54.9814 38.7321 54.9814 38.8958C54.9814 39.0595 55.1656 39.2642 55.3907 39.3256C55.6158 39.387 55.8 39.5712 55.8 39.7349C55.8 39.8781 55.9842 40.0419 56.2093 40.1032C56.4753 40.1646 56.6186 40.3898 56.6186 40.7172C56.6186 41.4539 56.8233 41.8837 57.1507 41.8837C57.3349 41.8837 57.4372 42.1088 57.4372 42.4772C57.4372 43.2753 57.6214 43.7256 57.9488 43.7256C58.3581 43.7256 58.4605 44.9739 58.4605 50.7246C58.4605 55.2884 58.5014 56.2298 58.7674 56.4958C58.9926 56.7005 59.0744 57.253 59.0744 58.4195C59.0744 59.6884 59.013 60.0772 58.7674 60.1795C58.5628 60.2614 58.4605 60.5888 58.4605 61.2028C58.4605 61.8986 58.3377 62.267 57.9488 62.6763C57.6623 62.9832 57.4372 63.4744 57.4372 63.7609C57.4372 64.0679 57.2735 64.3953 57.0279 64.5591C56.8028 64.7023 56.6186 65.0298 56.6186 65.3163C56.6186 65.6028 56.4753 65.8893 56.2912 65.9712C56.1274 66.0326 55.8819 66.2986 55.7795 66.5646C55.6977 66.8307 55.4726 67.0558 55.3088 67.0558C55.1656 67.0558 54.9814 67.24 54.92 67.4651C54.8586 67.7516 54.6335 67.8744 54.2651 67.8744C53.9581 67.8744 53.5284 68.0791 53.2623 68.386C52.9963 68.6726 52.7302 68.8977 52.6484 68.8977C52.587 68.8977 52.3414 69.0819 52.1163 69.307C51.8502 69.573 51.4409 69.7163 50.8884 69.7163C50.4177 69.7163 49.8446 69.8595 49.5786 70.0437C48.2688 70.8828 26.9033 70.8828 25.614 70.0437C25.3479 69.8595 24.9386 69.7163 24.7135 69.7163C24.0995 69.7163 23.6698 69.4912 23.6698 69.1842C23.6698 69 23.4242 68.8977 22.9535 68.8977C22.4623 68.8977 22.1963 68.7749 22.0326 68.5088C21.9302 68.2837 21.6642 68.0586 21.4391 67.9767C21.2344 67.9153 21.0093 67.6698 20.9479 67.4651C20.8865 67.24 20.7023 67.0558 20.5181 67.0558C20.334 67.0558 20.1907 66.8921 20.1907 66.6465C20.1907 66.4009 20.0474 66.2372 19.8633 66.2372C19.6791 66.2372 19.4949 66.053 19.4335 65.8074C19.3721 65.5823 19.106 65.2958 18.84 65.1935C18.574 65.1116 18.3488 64.8865 18.3488 64.7023C18.3488 64.5386 18.226 64.3953 18.0623 64.3953C17.7349 64.3953 17.5302 63.9656 17.5302 63.2288C17.5302 62.9423 17.3665 62.5739 17.1823 62.4307C16.8344 62.2056 16.814 61.5098 16.814 53.1395C16.814 44.7693 16.8344 44.0735 17.1823 43.8484C17.3665 43.7051 17.5302 43.3367 17.5302 43.0502C17.5302 42.3339 17.7349 41.8837 18.0419 41.8837C18.2056 41.8837 18.3693 41.6995 18.4512 41.4949C18.5126 41.2698 18.7377 41.0242 18.9423 40.9628C19.1674 40.9014 19.3721 40.6558 19.4335 40.4512C19.4949 40.226 19.6791 40.0419 19.8428 40.0419C20.027 40.0419 20.1907 39.7553 20.2726 39.346C20.4158 38.6502 20.7023 38.4046 21.4595 38.4046C21.6847 38.4046 21.9098 38.2409 21.9712 37.9953C22.053 37.6884 22.2577 37.586 22.7898 37.586C23.1786 37.586 23.6288 37.4428 23.7926 37.2791C23.9767 37.1153 24.4474 36.9516 24.8567 36.9516C25.266 36.9312 27.0465 36.8493 28.786 36.7674C30.5256 36.6856 36.4605 36.6242 41.9656 36.6446L51.973 36.6651L52.28 37.1153ZM12.414 51.1544C12.414 53.6716 12.3526 54.3674 12.0865 54.7358C11.9228 54.9814 11.7181 55.6977 11.6567 56.3321C11.5953 56.946 11.4521 57.4986 11.3498 57.56C11.2474 57.6214 10.6949 57.6214 10.1219 57.5395C9.38512 57.4372 9.05767 57.2939 8.99628 57.0279C8.93488 56.8232 8.73023 56.6186 8.50512 56.5572C8.30046 56.4958 8.11628 56.3116 8.11628 56.1479C8.11628 55.9842 7.93209 55.8 7.70698 55.7386C7.31814 55.6363 7.29767 55.4521 7.29767 52.6484C7.29767 50.0493 7.3386 49.6605 7.62512 49.6605C7.8093 49.6605 7.99349 49.4763 8.05488 49.2512C8.11628 49.026 8.28 48.8419 8.44372 48.8419C8.58698 48.8419 8.81209 48.6577 8.93488 48.4326C9.11907 48.0846 9.36465 48.0232 10.7767 48.0232H12.414V51.1544ZM66.1758 48.4326C66.2372 48.6577 66.4009 48.8419 66.5646 48.8419C66.7079 48.8419 66.933 49.026 67.0558 49.2512C67.1786 49.4763 67.4037 49.6605 67.5674 49.6605C67.8335 49.6605 67.8744 50.1721 67.8744 52.7302C67.8744 55.4112 67.8335 55.8 67.547 55.8C67.3628 55.8 67.1786 55.9842 67.1172 56.2093C67.0558 56.4344 66.8512 56.6186 66.6465 56.6186C66.4419 56.6186 66.2372 56.8028 66.1758 57.0279C66.0939 57.3553 65.8893 57.4372 65.2753 57.4372C64.8456 57.4372 64.293 57.4986 64.0474 57.56L63.5767 57.6828V52.853V48.0232H64.8251C65.8893 48.0232 66.0939 48.0846 66.1758 48.4326ZM47.8186 75.7535C47.8186 76.4288 47.7367 76.6744 47.5116 76.6744C47.3274 76.6744 47.2046 76.8586 47.2046 77.1656C47.2046 77.8819 47 78.3116 46.6726 78.3116C46.5088 78.3116 46.386 78.4958 46.386 78.7209C46.386 78.987 46.2019 79.1712 45.8744 79.253C45.5879 79.3144 45.3628 79.4986 45.3628 79.6623C45.3628 79.826 45.2195 79.9488 45.0558 79.9488C44.8716 79.9488 44.6465 80.1739 44.5646 80.44C44.4623 80.706 44.1758 80.9721 43.9507 81.0335C43.7051 81.0949 43.5209 81.2791 43.5209 81.4633C43.5209 81.6884 43.3367 81.7907 42.8865 81.7907C42.4977 81.7907 42.1293 81.9544 41.9246 82.2205C41.5972 82.6093 41.3312 82.6298 38.3023 82.6707C34.9256 82.7116 34.107 82.5888 34.107 82.0772C34.107 81.8726 33.8614 81.7907 33.2679 81.7907C32.613 81.7907 32.4084 81.7088 32.3265 81.3814C32.2651 81.1153 32.04 80.9721 31.7535 80.9721C31.1191 80.9721 30.6279 80.4605 30.6279 79.826C30.6279 79.5395 30.4846 79.2735 30.28 79.1916C29.8707 79.0484 28.786 77.9228 28.786 77.6567C28.786 77.5749 28.6633 77.493 28.4995 77.493C28.3358 77.493 28.1516 77.3498 28.0902 77.1656C27.9265 76.7358 27.9265 75.1395 28.1107 74.9758C28.1721 74.8939 32.654 74.8326 38.0363 74.8326H47.8186V75.7535Z" fill="black"/>
<path d="M34.8642 3.4093C34.7823 3.75721 34.5777 3.8186 33.6158 3.8186C32.92 3.8186 32.4698 3.90046 32.4698 4.04371C32.4698 4.30976 31.3851 5.35348 30.9349 5.53767C30.7712 5.59906 30.6279 5.78325 30.6279 5.96743C30.6279 6.13115 30.4846 6.27441 30.3005 6.27441C30.1163 6.27441 29.9321 6.4586 29.8707 6.68371C29.8093 6.90883 29.6251 7.09302 29.4819 7.09302C29.3181 7.09302 29.0726 7.31813 28.9498 7.60464C28.6837 8.2186 28.1721 8.27999 28.0288 7.72743C27.947 7.42046 27.6809 7.31813 26.8009 7.25674C26.0233 7.19534 25.614 7.05208 25.4707 6.82697C25.3274 6.54046 24.9591 6.47906 23.6902 6.47906C22.2577 6.47906 22.0735 6.51999 21.9712 6.88836C21.8893 7.23627 21.6847 7.29767 20.7228 7.29767C19.8633 7.29767 19.5358 7.37953 19.4335 7.62511C19.3721 7.78883 19.106 8.03441 18.84 8.13674C18.574 8.2186 18.3488 8.44371 18.3488 8.6279C18.3488 8.81208 18.1647 8.93488 17.8577 8.93488C17.2233 8.93488 15.893 10.2446 15.893 10.8995C15.893 11.1656 15.7088 11.4726 15.4837 11.5953C15.1972 11.7591 15.0744 12.0251 15.0744 12.5163C15.0744 13.0893 14.9926 13.2326 14.6651 13.2326C14.2763 13.2326 14.2558 13.3758 14.2558 15.893C14.2558 18.4102 14.2763 18.5535 14.6651 18.5535C15.013 18.5535 15.0744 18.6967 15.0744 19.3516C15.0744 19.9656 15.1563 20.1702 15.4837 20.2521C15.7907 20.3339 15.893 20.5386 15.893 21.0912C15.893 21.7051 15.9953 21.8688 16.4047 22.0326C16.6912 22.1349 16.9163 22.36 16.9163 22.5442C16.9163 22.7079 17.0595 22.8512 17.2233 22.8512C17.4074 22.8512 17.6121 23.0149 17.6735 23.1991C17.8372 23.6698 18.5535 24.386 19.0242 24.5498C19.2084 24.6112 19.3721 24.8158 19.3721 25C19.3721 25.2046 19.6586 25.3479 20.1907 25.4298L21.0093 25.573L20.9684 29.7888L20.907 34.0046L20.1907 34.066C19.7814 34.107 19.3721 34.3116 19.2084 34.5367C19.0651 34.7414 18.7172 34.9256 18.4512 34.9256C18.1647 34.9256 17.8577 35.1098 17.7349 35.3349C17.6121 35.56 17.387 35.7442 17.2233 35.7442C17.0391 35.7442 16.9163 35.9284 16.9163 36.1739C16.9163 36.4195 16.7526 36.6446 16.507 36.706C16.2409 36.7674 16.0567 37.0539 15.9749 37.5246C15.893 37.9953 15.6884 38.2819 15.4633 38.3432C15.2381 38.4046 15.0744 38.6298 15.0744 38.8549C15.0744 39.08 14.9107 39.3051 14.6856 39.3665C14.4195 39.4279 14.2558 39.7144 14.174 40.2465C14.0921 40.7786 13.9284 41.0446 13.6419 41.1265C13.3144 41.2084 13.2326 41.3926 13.2326 42.0679C13.2326 42.6614 13.1507 42.907 12.9256 42.907C12.7823 42.907 12.5572 43.0298 12.4753 43.1935C12.3526 43.3981 11.6567 43.5005 9.9786 43.5619C7.85023 43.6437 7.60465 43.7051 7.3386 44.0939C7.17488 44.3395 6.9293 44.5442 6.76558 44.5442C6.62233 44.5442 6.39721 44.7284 6.27442 44.933C6.15163 45.1786 5.80372 45.3628 5.39442 45.4037C4.80093 45.4651 4.73953 45.5265 4.67814 46.2019C4.63721 46.7544 4.49395 46.9795 4.20744 47.0614C3.9414 47.1228 3.8186 47.3479 3.8186 47.6958C3.8186 47.9823 3.63442 48.4121 3.4093 48.6372C3.04093 49.0056 3 49.3126 3 52.3209C3 54.9405 3.0614 55.6363 3.28651 55.7181C3.45023 55.7795 3.63442 56.2912 3.71628 56.946C3.79814 57.6419 3.98233 58.1535 4.20744 58.2967C4.39163 58.44 4.61674 58.7265 4.6986 58.9107C4.76 59.1153 4.96465 59.2791 5.14884 59.2791C5.31256 59.2791 5.45581 59.4223 5.45581 59.586C5.45581 59.7702 5.68093 59.9953 5.96744 60.0977C6.25395 60.2 6.47907 60.4251 6.47907 60.6093C6.47907 60.773 6.62233 60.9163 6.80651 60.9163C6.9907 60.9163 7.17488 61.1005 7.23628 61.3051C7.35907 61.7963 8.07535 61.9395 10.3879 61.9395C11.9842 61.9395 12.2298 61.9805 12.414 62.3488C12.5367 62.5739 12.7619 62.7581 12.9256 62.7581C13.1302 62.7581 13.2326 62.9628 13.2326 63.3926C13.2326 63.8223 13.4167 64.2112 13.7442 64.5181C14.1535 64.8865 14.2558 65.1935 14.2558 65.9302C14.2558 66.7079 14.3377 66.9126 14.6651 66.9944C14.8902 67.0558 15.0744 67.2809 15.0744 67.506C15.0744 67.7312 15.2586 67.9563 15.4837 68.0177C15.7088 68.0791 15.893 68.2428 15.893 68.386C15.893 68.5498 16.0772 68.7135 16.2819 68.7953C16.4865 68.8567 16.7116 69.1023 16.773 69.307C16.8344 69.5321 17.0186 69.7163 17.1823 69.7163C17.3665 69.7163 17.5712 69.9005 17.6326 70.1256C17.694 70.3507 17.8781 70.5349 18.0419 70.5349C18.1851 70.5349 18.3488 70.7191 18.4102 70.9442C18.4716 71.1898 18.6967 71.3535 18.9423 71.3535C19.1879 71.3535 19.3721 71.4763 19.3721 71.6605C19.3721 71.8446 19.5972 72.0902 19.8837 72.213C20.1702 72.3358 20.3953 72.5609 20.3953 72.7246C20.3953 72.8679 20.6205 72.9907 20.907 72.9907C21.2344 72.9907 21.6847 73.2567 22.1349 73.7274C22.7693 74.3619 22.8512 74.587 22.8512 75.4874C22.8512 76.3265 22.9126 76.5312 23.2605 76.613C23.6084 76.7153 23.6698 76.8995 23.6698 77.8205C23.6698 78.68 23.7516 78.946 24.0586 79.1302C24.2837 79.2326 24.5293 79.6214 24.6112 79.9898C24.6726 80.3581 24.9181 80.7879 25.1228 80.9312C25.3479 81.0744 25.5116 81.3405 25.5116 81.5042C25.5116 81.6679 25.6549 81.7907 25.8186 81.7907C26.0028 81.7907 26.2279 82.0158 26.3302 82.3023C26.4326 82.5888 26.6577 82.8139 26.8419 82.8139C27.0056 82.8139 27.1488 82.9572 27.1488 83.1414C27.1488 83.3256 27.333 83.5098 27.5581 83.5712C27.7833 83.6326 27.9674 83.8167 27.9674 83.96C27.9674 84.1237 28.0698 84.2465 28.1721 84.2465C28.4586 84.2465 29.8093 85.5972 29.8093 85.8837C29.8093 86.0065 30.3414 86.0884 31.0577 86.0884C32.1014 86.0884 32.3265 86.1498 32.4084 86.4772C32.4902 86.7842 32.7767 86.866 34.066 86.9888C35.1098 87.0707 35.7237 87.2139 35.867 87.4186C36.2149 87.8688 38.9777 87.8484 39.3256 87.3981C39.5098 87.1321 40.0419 87.0298 41.5153 86.9479C43.214 86.866 43.5005 86.8046 43.5823 86.4772C43.6642 86.1702 43.8688 86.0884 44.5033 86.0884C45.1377 86.0884 45.3423 86.0065 45.4242 85.6791C45.4856 85.413 45.7107 85.2698 46.0381 85.2698C46.3656 85.2698 46.8567 84.9833 47.3479 84.4921C47.7777 84.0623 48.2893 83.6326 48.494 83.5712C48.6781 83.4893 48.8419 83.2437 48.8419 83.0186C48.8419 82.7526 48.9851 82.6093 49.2512 82.6093C49.5172 82.6093 49.6605 82.466 49.6605 82.2C49.6605 81.9339 49.8037 81.7907 50.0493 81.7907C50.3358 81.7907 50.4586 81.586 50.5609 80.9721C50.6428 80.4605 50.8474 80.0921 51.093 79.9488C51.3795 79.8056 51.5023 79.5191 51.5023 79.0688C51.5023 78.6391 51.6456 78.3321 51.9116 78.1479C52.2391 77.9433 52.3209 77.6772 52.3209 76.8586C52.3209 75.9991 52.3823 75.7944 52.7302 75.7126C53.0781 75.6102 53.1395 75.426 53.1395 74.4028V73.1953L53.9786 73.0726C54.5721 72.9702 54.8586 72.8065 54.92 72.5609C55.0019 72.2744 55.227 72.1721 55.7386 72.1721C56.2707 72.1721 56.4753 72.0698 56.5572 71.7628C56.6186 71.5377 56.8437 71.3535 57.0484 71.3535C57.2735 71.3535 57.4372 71.2102 57.4372 71.0465C57.4372 70.8623 57.6623 70.6372 57.9488 70.5349C58.2353 70.4326 58.4605 70.2074 58.4605 70.0437C58.4605 69.88 58.6446 69.6753 58.8698 69.6139C59.0949 69.5526 59.2791 69.3684 59.2791 69.2046C59.2791 69.0409 59.4633 68.8567 59.6884 68.7953C59.9135 68.7339 60.0977 68.4884 60.0977 68.2837C60.0977 68.0995 60.2819 67.8744 60.507 67.813C60.7935 67.7516 60.9163 67.5265 60.9163 67.1786C60.9163 66.8921 61.1005 66.4623 61.3051 66.2577C61.5302 66.0326 61.7758 65.5209 61.8577 65.1321C61.9191 64.7228 62.1033 64.3953 62.267 64.3953C62.4512 64.3953 62.574 63.986 62.6763 63.1879L62.7991 62.0009L65.5823 61.8986C68.1405 61.8167 68.386 61.7758 68.6521 61.3665C68.8158 61.1209 69.1023 60.9163 69.307 60.9163C69.5116 60.9163 69.7163 60.7321 69.7777 60.507C69.8391 60.2819 70.0233 60.0977 70.2074 60.0977C70.3916 60.0977 70.5349 59.9339 70.5349 59.7088C70.5349 59.5042 70.7191 59.2791 70.9442 59.2177C71.2512 59.1358 71.3535 58.9312 71.3535 58.4809C71.3535 58.0921 71.5172 57.7032 71.7628 57.4986C72.1516 57.1712 72.1721 56.8846 72.1721 52.587C72.1721 48.8214 72.1312 48.0232 71.8856 48.0232C71.5581 48.0232 71.3535 47.5935 71.3535 46.8567C71.3535 46.5293 71.2102 46.3042 70.9646 46.2428C70.7395 46.1814 70.5349 45.9767 70.4735 45.7516C70.4121 45.5265 70.187 45.3628 69.9619 45.3628C69.7367 45.3628 69.5116 45.1786 69.4502 44.9535C69.3888 44.7079 69.1637 44.5442 68.9386 44.5442C68.3042 44.5442 67.8744 44.3191 67.8744 44.0121C67.8744 43.8074 67.3014 43.7256 65.2753 43.6846C62.7377 43.6232 62.6558 43.6028 62.5944 43.1526C62.5535 42.907 62.4102 42.7023 62.2465 42.7023C62.0623 42.7023 61.9395 42.293 61.8372 41.4744C61.7349 40.6763 61.5916 40.2465 61.4279 40.2465C61.1414 40.2465 60.9163 39.7963 60.9163 39.2232C60.9163 38.9981 60.7321 38.7321 60.507 38.6093C60.2819 38.4865 60.0977 38.2 60.0977 37.9953C60.0977 37.7293 59.9544 37.586 59.6884 37.586C59.4633 37.586 59.2791 37.5042 59.2791 37.3814C59.2791 37.1153 57.1098 34.9256 56.8233 34.9256C56.7209 34.9256 56.6186 34.8028 56.6186 34.6391C56.6186 34.3116 56.1888 34.107 55.4726 34.107H54.9814V29.707C54.9814 25.4502 55.0019 25.307 55.3907 25.307C55.6158 25.307 55.8 25.1842 55.8 25.0205C55.8 24.7135 56.2298 24.4884 56.8233 24.4884C57.253 24.4884 58.1126 23.7516 58.3172 23.1991C58.3786 23.0149 58.5833 22.8512 58.7674 22.8512C58.9312 22.8512 59.1767 22.626 59.2791 22.3395C59.3814 22.053 59.6065 21.8279 59.7907 21.8279C59.9953 21.8279 60.0977 21.6232 60.0977 21.1116C60.0977 20.6819 60.2205 20.3544 60.4456 20.2316C60.6912 20.0884 60.8344 19.5972 60.9367 18.533C61.0391 17.5712 61.2233 16.9367 61.4279 16.7935C61.8372 16.4865 61.8167 15.2791 61.4074 14.9721C61.1619 14.8084 61.0391 14.2967 60.9572 13.2326C60.8753 12.0046 60.7935 11.7386 60.4865 11.6567C60.2614 11.5953 60.0977 11.3702 60.0977 11.1451C60.0977 10.92 59.9135 10.6949 59.6884 10.6335C59.4633 10.5721 59.2791 10.4084 59.2791 10.2651C59.2791 10.1014 59.0949 9.9172 58.8698 9.85581C58.6446 9.79441 58.4605 9.58976 58.4605 9.42604C58.4605 9.26232 58.2353 9.0372 57.9488 8.93488C57.6623 8.83255 57.4372 8.60743 57.4372 8.42325C57.4372 8.25953 57.2735 8.11627 57.0484 8.11627C56.8437 8.11627 56.6186 7.93208 56.5572 7.70697C56.4753 7.37953 56.2707 7.29767 55.534 7.29767C54.8995 7.29767 54.4493 7.15441 54.04 6.82697C53.5488 6.4586 53.2009 6.37674 51.8502 6.37674C50.4791 6.37674 50.1926 6.43813 49.947 6.78604C49.7014 7.11348 49.3535 7.21581 48.0233 7.25674C46.427 7.3386 46.386 7.3386 46.1814 6.8065C46.0791 6.51999 45.854 6.27441 45.6902 6.27441C45.547 6.27441 45.3628 6.09022 45.3014 5.86511C45.24 5.63999 45.0558 5.45581 44.8716 5.45581C44.6874 5.45581 44.5442 5.31255 44.5442 5.14883C44.5442 4.98511 44.2986 4.80092 43.9916 4.71906C42.866 4.47348 42.7023 4.39162 42.7023 4.10511C42.7023 3.92092 42.4772 3.8186 41.9656 3.8186C41.413 3.8186 41.2084 3.71628 41.1265 3.4093C41.0242 3.02046 40.84 3 37.9953 3C35.1507 3 34.9665 3.02046 34.8642 3.4093ZM39.4893 7.70697C39.5712 8.05488 39.7758 8.11627 40.6558 8.11627C41.5358 8.11627 41.7405 8.17767 41.8223 8.50511C41.8837 8.73022 42.0884 8.93488 42.3135 8.99627C42.5795 9.07813 42.7023 9.28278 42.7023 9.65115C42.7023 9.99906 42.907 10.4084 43.214 10.6949C43.5005 10.9609 43.7256 11.3907 43.7256 11.6977C43.7256 11.9842 43.8484 12.2707 44.0121 12.3321C44.1758 12.3935 44.3395 12.9051 44.4214 13.6623L44.5646 14.8698H45.4651C46.1405 14.8698 46.386 14.7879 46.386 14.5628C46.386 14.3991 46.5088 14.2558 46.6726 14.2558C46.8363 14.2558 47.0205 14.0307 47.0819 13.7442C47.1637 13.4577 47.3479 13.2326 47.4912 13.2326C47.6549 13.2326 47.8186 13.0484 47.88 12.8232C47.9414 12.5981 48.1665 12.4139 48.3916 12.4139C48.6167 12.4139 48.8419 12.2298 48.9033 12.0046C48.9851 11.6977 49.1898 11.5953 49.7014 11.5953C50.1516 11.5953 50.4586 11.4726 50.6428 11.186C50.786 10.9405 51.1135 10.7767 51.4205 10.7767C51.707 10.7767 52.1777 10.9609 52.4642 11.186C52.8121 11.4521 53.3033 11.5953 53.8967 11.5953C54.6335 11.5953 54.8381 11.6772 54.92 12.0046C54.9814 12.2298 55.1656 12.4139 55.3088 12.4139C55.4726 12.4139 55.6567 12.5777 55.7386 12.7619C55.8 12.9665 56.0456 13.2735 56.2707 13.4577C56.6186 13.7442 56.68 14.0512 56.68 15.7088C56.7005 17.8167 56.5367 18.5535 56.0865 18.5535C55.9023 18.5535 55.8 18.7786 55.8 19.2698C55.8 19.8632 55.6977 20.027 55.2884 20.1907C55.0019 20.293 54.7767 20.5181 54.7767 20.7023C54.7767 20.9274 54.5721 21.0093 54.04 21.0093C53.4874 21.0093 53.2828 21.1116 53.2009 21.3981C53.1191 21.7051 52.853 21.8279 51.9321 21.9302L50.7451 22.0735L50.6223 24.3451C50.5405 25.6139 50.4791 27.7219 50.4791 29.0316V31.4465H37.893H25.307V26.7395V22.0326H24.1405C22.6465 22.0326 22.0326 21.8688 22.0326 21.48C22.0326 21.3163 21.8484 21.1321 21.6437 21.0707C21.4186 21.0093 21.214 20.8046 21.1526 20.5795C21.0912 20.3544 20.866 20.1907 20.6205 20.1907C20.334 20.1907 20.1907 20.0679 20.1907 19.8019C20.1907 19.5972 20.0065 19.3721 19.7814 19.3107C19.4335 19.2288 19.3721 19.0242 19.3721 18.1646C19.3721 17.3665 19.2698 17.0391 18.9628 16.773C18.7377 16.5684 18.5535 16.2 18.5535 15.9339C18.5535 15.6679 18.7377 15.2177 18.9628 14.9312C19.1879 14.6446 19.3721 14.1739 19.3721 13.9079C19.3721 13.5805 19.5153 13.3553 19.7814 13.2939C20.0065 13.2326 20.1907 13.0074 20.1907 12.8028C20.1907 12.5572 20.334 12.4139 20.6 12.4139C20.8047 12.4139 21.0912 12.2298 21.214 12.0046C21.3367 11.7591 21.6437 11.5953 21.9302 11.5953C22.2167 11.5953 22.6056 11.4112 22.7898 11.186C22.9944 10.9609 23.3628 10.7767 23.6288 10.7767C23.8949 10.7767 24.3451 10.9609 24.6316 11.186C24.9795 11.4521 25.4707 11.5953 26.0642 11.5953C26.8009 11.5953 27.0056 11.6772 27.0874 12.0046C27.1488 12.2298 27.374 12.4139 27.5786 12.4139C27.8651 12.4139 27.9674 12.5572 27.9674 13.0074C27.9674 13.8056 28.1516 14.2558 28.4995 14.2558C28.6633 14.2558 28.786 14.3991 28.786 14.5628C28.786 14.7879 29.0316 14.8698 29.707 14.8698C30.3619 14.8698 30.6279 14.7879 30.6279 14.5832C30.6279 14.4195 30.8326 14.2558 31.0986 14.2149C31.5079 14.1535 31.5488 14.0307 31.6102 12.4549C31.6512 11.1451 31.733 10.7767 31.9581 10.7767C32.1219 10.7767 32.2651 10.6335 32.2651 10.4698C32.2651 10.306 32.4902 10.0195 32.7767 9.83534C33.0633 9.65115 33.2884 9.38511 33.2884 9.24185C33.2884 9.0986 33.4726 8.93488 33.6977 8.87348C33.9228 8.81208 34.107 8.6279 34.107 8.44371C34.107 8.19813 34.3116 8.11627 34.946 8.11627C35.6009 8.11627 35.8056 8.03441 35.8874 7.70697C35.9898 7.3386 36.174 7.29767 37.6884 7.29767C39.2028 7.29767 39.387 7.3386 39.4893 7.70697ZM52.28 37.1153C52.4846 37.4428 52.7712 37.586 53.2623 37.586C53.7535 37.586 53.9581 37.6884 53.9581 37.893C53.9581 38.0772 54.1833 38.3023 54.4698 38.4046C54.7563 38.507 54.9814 38.7321 54.9814 38.8958C54.9814 39.0595 55.1656 39.2642 55.3907 39.3256C55.6158 39.387 55.8 39.5712 55.8 39.7349C55.8 39.8781 55.9842 40.0419 56.2093 40.1032C56.4753 40.1646 56.6186 40.3898 56.6186 40.7172C56.6186 41.4539 56.8233 41.8837 57.1507 41.8837C57.3349 41.8837 57.4372 42.1088 57.4372 42.4772C57.4372 43.2753 57.6214 43.7256 57.9488 43.7256C58.3581 43.7256 58.4605 44.9739 58.4605 50.7246C58.4605 55.2884 58.5014 56.2298 58.7674 56.4958C58.9926 56.7005 59.0744 57.253 59.0744 58.4195C59.0744 59.6884 59.013 60.0772 58.7674 60.1795C58.5628 60.2614 58.4605 60.5888 58.4605 61.2028C58.4605 61.8986 58.3377 62.267 57.9488 62.6763C57.6623 62.9832 57.4372 63.4744 57.4372 63.7609C57.4372 64.0679 57.2735 64.3953 57.0279 64.5591C56.8028 64.7023 56.6186 65.0298 56.6186 65.3163C56.6186 65.6028 56.4753 65.8893 56.2912 65.9712C56.1274 66.0326 55.8819 66.2986 55.7795 66.5646C55.6977 66.8307 55.4726 67.0558 55.3088 67.0558C55.1656 67.0558 54.9814 67.24 54.92 67.4651C54.8586 67.7516 54.6335 67.8744 54.2651 67.8744C53.9581 67.8744 53.5284 68.0791 53.2623 68.386C52.9963 68.6726 52.7302 68.8977 52.6484 68.8977C52.587 68.8977 52.3414 69.0819 52.1163 69.307C51.8502 69.573 51.4409 69.7163 50.8884 69.7163C50.4177 69.7163 49.8446 69.8595 49.5786 70.0437C48.2688 70.8828 26.9033 70.8828 25.614 70.0437C25.3479 69.8595 24.9386 69.7163 24.7135 69.7163C24.0995 69.7163 23.6698 69.4912 23.6698 69.1842C23.6698 69 23.4242 68.8977 22.9535 68.8977C22.4623 68.8977 22.1963 68.7749 22.0326 68.5088C21.9302 68.2837 21.6642 68.0586 21.4391 67.9767C21.2344 67.9153 21.0093 67.6698 20.9479 67.4651C20.8865 67.24 20.7023 67.0558 20.5181 67.0558C20.334 67.0558 20.1907 66.8921 20.1907 66.6465C20.1907 66.4009 20.0474 66.2372 19.8633 66.2372C19.6791 66.2372 19.4949 66.053 19.4335 65.8074C19.3721 65.5823 19.106 65.2958 18.84 65.1935C18.574 65.1116 18.3488 64.8865 18.3488 64.7023C18.3488 64.5386 18.226 64.3953 18.0623 64.3953C17.7349 64.3953 17.5302 63.9656 17.5302 63.2288C17.5302 62.9423 17.3665 62.5739 17.1823 62.4307C16.8344 62.2056 16.814 61.5098 16.814 53.1395C16.814 44.7693 16.8344 44.0735 17.1823 43.8484C17.3665 43.7051 17.5302 43.3367 17.5302 43.0502C17.5302 42.3339 17.7349 41.8837 18.0419 41.8837C18.2056 41.8837 18.3693 41.6995 18.4512 41.4949C18.5126 41.2698 18.7377 41.0242 18.9423 40.9628C19.1674 40.9014 19.3721 40.6558 19.4335 40.4512C19.4949 40.226 19.6791 40.0419 19.8428 40.0419C20.027 40.0419 20.1907 39.7553 20.2726 39.346C20.4158 38.6502 20.7023 38.4046 21.4595 38.4046C21.6847 38.4046 21.9098 38.2409 21.9712 37.9953C22.053 37.6884 22.2577 37.586 22.7898 37.586C23.1786 37.586 23.6288 37.4428 23.7926 37.2791C23.9767 37.1153 24.4474 36.9516 24.8567 36.9516C25.266 36.9312 27.0465 36.8493 28.786 36.7674C30.5256 36.6856 36.4605 36.6242 41.9656 36.6446L51.973 36.6651L52.28 37.1153ZM12.414 51.1544C12.414 53.6716 12.3526 54.3674 12.0865 54.7358C11.9228 54.9814 11.7181 55.6977 11.6567 56.3321C11.5953 56.946 11.4521 57.4986 11.3498 57.56C11.2474 57.6214 10.6949 57.6214 10.1219 57.5395C9.38512 57.4372 9.05767 57.2939 8.99628 57.0279C8.93488 56.8232 8.73023 56.6186 8.50512 56.5572C8.30046 56.4958 8.11628 56.3116 8.11628 56.1479C8.11628 55.9842 7.93209 55.8 7.70698 55.7386C7.31814 55.6363 7.29767 55.4521 7.29767 52.6484C7.29767 50.0493 7.3386 49.6605 7.62512 49.6605C7.8093 49.6605 7.99349 49.4763 8.05488 49.2512C8.11628 49.026 8.28 48.8419 8.44372 48.8419C8.58698 48.8419 8.81209 48.6577 8.93488 48.4326C9.11907 48.0846 9.36465 48.0232 10.7767 48.0232H12.414V51.1544ZM66.1758 48.4326C66.2372 48.6577 66.4009 48.8419 66.5646 48.8419C66.7079 48.8419 66.933 49.026 67.0558 49.2512C67.1786 49.4763 67.4037 49.6605 67.5674 49.6605C67.8335 49.6605 67.8744 50.1721 67.8744 52.7302C67.8744 55.4112 67.8335 55.8 67.547 55.8C67.3628 55.8 67.1786 55.9842 67.1172 56.2093C67.0558 56.4344 66.8512 56.6186 66.6465 56.6186C66.4419 56.6186 66.2372 56.8028 66.1758 57.0279C66.0939 57.3553 65.8893 57.4372 65.2753 57.4372C64.8456 57.4372 64.293 57.4986 64.0474 57.56L63.5767 57.6828V52.853V48.0232H64.8251C65.8893 48.0232 66.0939 48.0846 66.1758 48.4326ZM47.8186 75.7535C47.8186 76.4288 47.7367 76.6744 47.5116 76.6744C47.3274 76.6744 47.2046 76.8586 47.2046 77.1656C47.2046 77.8819 47 78.3116 46.6726 78.3116C46.5088 78.3116 46.386 78.4958 46.386 78.7209C46.386 78.987 46.2019 79.1712 45.8744 79.253C45.5879 79.3144 45.3628 79.4986 45.3628 79.6623C45.3628 79.826 45.2195 79.9488 45.0558 79.9488C44.8716 79.9488 44.6465 80.1739 44.5646 80.44C44.4623 80.706 44.1758 80.9721 43.9507 81.0335C43.7051 81.0949 43.5209 81.2791 43.5209 81.4633C43.5209 81.6884 43.3367 81.7907 42.8865 81.7907C42.4977 81.7907 42.1293 81.9544 41.9246 82.2205C41.5972 82.6093 41.3312 82.6298 38.3023 82.6707C34.9256 82.7116 34.107 82.5888 34.107 82.0772C34.107 81.8726 33.8614 81.7907 33.2679 81.7907C32.613 81.7907 32.4084 81.7088 32.3265 81.3814C32.2651 81.1153 32.04 80.9721 31.7535 80.9721C31.1191 80.9721 30.6279 80.4605 30.6279 79.826C30.6279 79.5395 30.4846 79.2735 30.28 79.1916C29.8707 79.0484 28.786 77.9228 28.786 77.6567C28.786 77.5749 28.6633 77.493 28.4995 77.493C28.3358 77.493 28.1516 77.3498 28.0902 77.1656C27.9265 76.7358 27.9265 75.1395 28.1107 74.9758C28.1721 74.8939 32.654 74.8326 38.0363 74.8326H47.8186V75.7535Z" stroke="white" stroke-width="6" mask="url(#path-5-outside-1_31_48)"/>
<path d="M29.8708 20.6C29.8094 20.8661 29.5843 21.0093 29.2773 21.0093H28.7861V24.0791V27.1489H29.2773C29.5843 27.1489 29.8094 27.2921 29.8708 27.5582C29.9526 27.8651 30.1573 27.9675 30.6075 27.9675C31.0168 27.9675 31.3033 27.8242 31.4466 27.5582C31.5694 27.333 31.7945 27.1489 31.9582 27.1489C32.2243 27.1489 32.2652 26.6372 32.2652 24.0791C32.2652 21.1526 32.2447 21.0093 31.8559 21.0093C31.6308 21.0093 31.4466 20.8865 31.4466 20.7228C31.4466 20.1089 30.0345 19.9861 29.8708 20.6Z" fill="black"/>
<path d="M36.7673 20.6C36.6445 20.8251 36.4194 21.0093 36.2557 21.0093C35.9897 21.0093 35.9487 21.521 35.9487 24.0791C35.9487 26.76 35.9897 27.1489 36.2762 27.1489C36.4604 27.1489 36.6445 27.333 36.7059 27.5582C36.7878 27.8856 36.9925 27.9675 37.6064 27.9675C38.1794 27.9675 38.4045 27.8856 38.4045 27.6605C38.4045 27.4968 38.5887 27.3535 38.8138 27.3535C39.2027 27.3535 39.2231 27.2103 39.2231 24.1814C39.2231 21.214 39.2027 21.0093 38.8343 21.0093C38.6297 21.0093 38.4045 20.8251 38.3431 20.6C38.2613 20.293 38.0566 20.1907 37.6064 20.1907C37.1971 20.1907 36.9106 20.334 36.7673 20.6Z" fill="black"/>
<path d="M44.401 20.6C44.3396 20.8251 44.1145 21.0093 43.9098 21.0093C43.5415 21.0093 43.521 21.214 43.521 24.0791C43.521 27.067 43.5415 27.1489 43.9508 27.1489C44.1963 27.1489 44.4215 27.3126 44.4829 27.5582C44.5647 27.8856 44.7694 27.9675 45.3833 27.9675C46.0996 27.9675 46.1815 27.9061 46.1815 27.4763C46.1815 26.76 46.3861 26.3303 46.7136 26.3303C46.9387 26.3303 47.0001 25.88 47.0001 24.1814C47.0001 22.401 46.9387 22.0326 46.6931 22.0326C46.5089 22.0326 46.3861 21.8484 46.3861 21.6028C46.3861 21.3572 46.2224 21.1321 45.9973 21.0707C45.7722 21.0093 45.5675 20.8047 45.5061 20.5796C45.3629 20.0475 44.5443 20.0679 44.401 20.6Z" fill="black"/>
<path d="M26.3301 44.0121C26.3301 44.3395 25.9004 44.5442 25.1841 44.5442C24.8771 44.5442 24.6929 44.667 24.6929 44.8512C24.6929 45.0353 24.4678 45.2605 24.1813 45.3628C23.772 45.5265 23.6697 45.6902 23.6697 46.2837C23.6697 46.8567 23.5878 47 23.2604 47C22.892 47 22.8511 47.1432 22.8511 48.7395C22.8511 50.1721 22.9125 50.4791 23.1581 50.4791C23.3422 50.4791 23.5674 50.7042 23.6697 50.9907C23.772 51.2772 23.9971 51.5023 24.1813 51.5023C24.345 51.5023 24.4883 51.6456 24.4883 51.8093C24.4883 51.9935 24.7134 52.2186 24.9999 52.3209C25.2864 52.4232 25.5115 52.6484 25.5115 52.8325C25.5115 53.0781 25.8799 53.1395 27.6604 53.1395C29.666 53.1395 29.8092 53.1191 29.8092 52.7302C29.8092 52.4642 29.9525 52.3209 30.2185 52.3209C30.4436 52.3209 30.7097 52.1572 30.7711 51.973C30.8529 51.7684 31.2213 51.3181 31.5897 50.9293C32.2446 50.2949 32.265 50.1925 32.265 48.6372C32.265 47.3684 32.2036 47 31.9785 47C31.6715 47 31.4464 46.5702 31.4464 45.9358C31.4464 45.7107 31.2827 45.4856 31.0576 45.4242C30.8325 45.3628 30.6278 45.1581 30.5664 44.933C30.505 44.6874 30.2799 44.5442 29.9525 44.5442C29.2157 44.5442 28.786 44.3395 28.786 44.0121C28.786 43.8074 28.479 43.7256 27.5581 43.7256C26.6371 43.7256 26.3301 43.8074 26.3301 44.0121Z" fill="black"/>
<path d="M46.3861 44.0121C46.3861 44.3395 45.9563 44.5442 45.2196 44.5442C44.8922 44.5442 44.667 44.6874 44.6056 44.933C44.5443 45.1581 44.3396 45.3628 44.1145 45.4242C43.8894 45.4856 43.7256 45.7107 43.7256 45.9358C43.7256 46.5498 43.521 47 43.214 47C42.907 47 42.7024 47.6344 42.7024 48.5553C42.7024 48.9442 42.8866 49.3944 43.214 49.7423C43.5005 50.0493 43.7256 50.4791 43.7256 50.6837C43.7256 50.9088 43.9098 51.1953 44.135 51.3386C44.3601 51.4819 44.5443 51.7684 44.5443 51.9525C44.5443 52.1981 44.708 52.3209 44.974 52.3209C45.2196 52.3209 45.4447 52.4846 45.5061 52.7302C45.6084 53.0986 45.7926 53.1395 47.7368 53.1395C49.7015 53.1395 49.8652 53.1191 49.8652 52.7507C49.8652 52.4232 50.0289 52.3414 50.6429 52.28C51.2363 52.2391 51.4205 52.1163 51.4615 51.7888C51.5024 51.5432 51.707 51.2977 51.9322 51.2363C52.1982 51.1544 52.321 50.9498 52.321 50.52C52.321 50.1925 52.5052 49.7628 52.7303 49.5581C53.2624 49.067 53.2829 47.7777 52.7712 47.266C52.5461 47.0614 52.321 46.7339 52.2596 46.5293C52.1777 46.3451 51.9936 46.1814 51.8094 46.1814C51.6456 46.1814 51.5024 45.9972 51.5024 45.7721C51.5024 45.5265 51.3591 45.3628 51.175 45.3628C50.9908 45.3628 50.8066 45.1786 50.7452 44.9535C50.6838 44.7284 50.4587 44.5442 50.2336 44.5442C50.0084 44.5442 49.7833 44.36 49.7219 44.1349C49.6196 43.7665 49.4354 43.7256 48.0029 43.7256C46.7545 43.7256 46.3861 43.787 46.3861 44.0121Z" fill="black"/>
<path d="M29.8093 57.9693C29.8093 58.1535 29.6251 58.3377 29.4 58.3991C29.0726 58.481 28.9907 58.6856 28.9907 59.2791C28.9907 59.8726 29.0726 60.0772 29.4 60.1591C29.6456 60.2205 29.8093 60.4456 29.8093 60.6912C29.8093 60.9572 29.9321 61.121 30.1368 61.121C30.321 61.121 30.5051 61.3052 30.5665 61.5303C30.6279 61.7554 30.8121 61.9396 30.9554 61.9396C31.1191 61.9396 31.3033 62.0828 31.3647 62.2465C31.4465 62.4103 31.8354 62.6149 32.2651 62.6763C32.7972 62.7582 33.0837 62.9219 33.1451 63.1879C33.2475 63.5563 33.5135 63.5768 37.5451 63.5768C41.6586 63.5768 41.8428 63.5563 41.9451 63.1675C42.027 62.8605 42.2317 62.7582 42.7842 62.7582C43.3163 62.7582 43.521 62.6763 43.521 62.4512C43.521 62.267 43.7461 62.0419 44.0326 61.9396C44.3191 61.8372 44.5442 61.5917 44.5442 61.4279C44.5442 61.2438 44.7079 61.0391 44.9126 60.9777C45.5265 60.7526 46.1405 59.934 46.2223 59.2382C46.2837 58.6242 46.2223 58.5628 45.4856 58.3582C45.0354 58.2354 44.6261 58.0103 44.5851 57.8875C44.5442 57.7442 44.1349 57.6419 43.6847 57.6419C43.0298 57.6419 42.8456 57.7238 42.7637 58.0717C42.641 58.5014 42.5796 58.5014 37.6475 58.44C33.1451 58.3582 32.6335 58.3172 32.4493 57.9898C32.1628 57.4986 29.8093 57.4782 29.8093 57.9693Z" fill="black"/>
</svg>
